<mxfile host="app.diagrams.net" modified="2022-02-14T12:53:17.760Z" agent="5.0 (Macintosh; Intel Mac OS X 10_15_7) AppleWebKit/605.1.15 (KHTML, like Gecko) Version/15.0 Safari/605.1.15" etag="8BCgNwrGOeRS7C8wD4Mn" version="16.5.6" type="github">
  <diagram id="LL5_JECHYxLu1Z2AvWcq" name="Page-1">
    <mxGraphModel dx="1036" dy="873" grid="1" gridSize="10" guides="1" tooltips="1" connect="1" arrows="1" fold="1" page="1" pageScale="1" pageWidth="827" pageHeight="1169" math="0" shadow="0">
      <root>
        <mxCell id="0" />
        <mxCell id="1" parent="0" />
        <mxCell id="M3RhQpsxPhfQu1w_rPYv-31" value="" style="rounded=0;whiteSpace=wrap;html=1;fillColor=#FFFFCC;strokeColor=#CCCCCC;" parent="1" vertex="1">
          <mxGeometry x="430" y="70" width="140" height="440" as="geometry" />
        </mxCell>
        <mxCell id="M3RhQpsxPhfQu1w_rPYv-34" value="" style="rounded=0;whiteSpace=wrap;html=1;fillColor=#FFFFCC;strokeColor=#CCCCCC;" parent="1" vertex="1">
          <mxGeometry x="30" y="70" width="140" height="440" as="geometry" />
        </mxCell>
        <mxCell id="M3RhQpsxPhfQu1w_rPYv-33" value="" style="rounded=0;whiteSpace=wrap;html=1;fillColor=#FFFFCC;strokeColor=#B3B3B3;" parent="1" vertex="1">
          <mxGeometry x="230" y="70" width="140" height="440" as="geometry" />
        </mxCell>
        <mxCell id="M3RhQpsxPhfQu1w_rPYv-1" value="" style="rounded=0;whiteSpace=wrap;html=1;rotation=0;" parent="1" vertex="1">
          <mxGeometry x="40" y="240" width="120" height="70" as="geometry" />
        </mxCell>
        <mxCell id="M3RhQpsxPhfQu1w_rPYv-2" value="" style="rounded=0;whiteSpace=wrap;html=1;rotation=0;" parent="1" vertex="1">
          <mxGeometry x="240" y="240" width="120" height="60" as="geometry" />
        </mxCell>
        <mxCell id="M3RhQpsxPhfQu1w_rPYv-3" value="" style="rounded=0;whiteSpace=wrap;html=1;" parent="1" vertex="1">
          <mxGeometry x="440" y="80" width="120" height="60" as="geometry" />
        </mxCell>
        <mxCell id="M3RhQpsxPhfQu1w_rPYv-4" value="" style="rounded=0;whiteSpace=wrap;html=1;" parent="1" vertex="1">
          <mxGeometry x="440" y="160" width="120" height="60" as="geometry" />
        </mxCell>
        <mxCell id="M3RhQpsxPhfQu1w_rPYv-5" value="" style="rounded=0;whiteSpace=wrap;html=1;" parent="1" vertex="1">
          <mxGeometry x="440" y="240" width="120" height="60" as="geometry" />
        </mxCell>
        <mxCell id="M3RhQpsxPhfQu1w_rPYv-6" value="" style="rounded=0;whiteSpace=wrap;html=1;" parent="1" vertex="1">
          <mxGeometry x="440" y="320" width="120" height="60" as="geometry" />
        </mxCell>
        <mxCell id="M3RhQpsxPhfQu1w_rPYv-7" value="" style="rounded=0;whiteSpace=wrap;html=1;" parent="1" vertex="1">
          <mxGeometry x="440" y="400" width="120" height="60" as="geometry" />
        </mxCell>
        <mxCell id="M3RhQpsxPhfQu1w_rPYv-8" value="Zoom" style="text;html=1;strokeColor=none;fillColor=none;align=center;verticalAlign=middle;whiteSpace=wrap;rounded=0;rotation=0;" parent="1" vertex="1">
          <mxGeometry x="70" y="260" width="60" height="30" as="geometry" />
        </mxCell>
        <mxCell id="M3RhQpsxPhfQu1w_rPYv-9" value="Kernel" style="text;html=1;strokeColor=none;fillColor=none;align=center;verticalAlign=middle;whiteSpace=wrap;rounded=0;" parent="1" vertex="1">
          <mxGeometry x="270" y="255" width="60" height="30" as="geometry" />
        </mxCell>
        <mxCell id="M3RhQpsxPhfQu1w_rPYv-10" value="Camera" style="text;html=1;strokeColor=none;fillColor=none;align=center;verticalAlign=middle;whiteSpace=wrap;rounded=0;" parent="1" vertex="1">
          <mxGeometry x="470" y="95" width="60" height="30" as="geometry" />
        </mxCell>
        <mxCell id="M3RhQpsxPhfQu1w_rPYv-11" value="CPU" style="text;html=1;strokeColor=none;fillColor=none;align=center;verticalAlign=middle;whiteSpace=wrap;rounded=0;" parent="1" vertex="1">
          <mxGeometry x="470" y="175" width="60" height="30" as="geometry" />
        </mxCell>
        <mxCell id="M3RhQpsxPhfQu1w_rPYv-12" value="Mic" style="text;html=1;strokeColor=none;fillColor=none;align=center;verticalAlign=middle;whiteSpace=wrap;rounded=0;" parent="1" vertex="1">
          <mxGeometry x="470" y="255" width="60" height="30" as="geometry" />
        </mxCell>
        <mxCell id="M3RhQpsxPhfQu1w_rPYv-13" value="Memory" style="text;html=1;strokeColor=none;fillColor=none;align=center;verticalAlign=middle;whiteSpace=wrap;rounded=0;" parent="1" vertex="1">
          <mxGeometry x="470" y="335" width="60" height="30" as="geometry" />
        </mxCell>
        <mxCell id="M3RhQpsxPhfQu1w_rPYv-14" value="File_System" style="text;html=1;strokeColor=none;fillColor=none;align=center;verticalAlign=middle;whiteSpace=wrap;rounded=0;" parent="1" vertex="1">
          <mxGeometry x="470" y="415" width="60" height="30" as="geometry" />
        </mxCell>
        <mxCell id="M3RhQpsxPhfQu1w_rPYv-21" value="" style="endArrow=classic;html=1;rounded=0;exitX=0.75;exitY=0;exitDx=0;exitDy=0;entryX=0;entryY=0.5;entryDx=0;entryDy=0;" parent="1" source="M3RhQpsxPhfQu1w_rPYv-2" target="M3RhQpsxPhfQu1w_rPYv-3" edge="1">
          <mxGeometry width="50" height="50" relative="1" as="geometry">
            <mxPoint x="380" y="160" as="sourcePoint" />
            <mxPoint x="430" y="110" as="targetPoint" />
            <Array as="points">
              <mxPoint x="330" y="110" />
              <mxPoint x="390" y="110" />
            </Array>
          </mxGeometry>
        </mxCell>
        <mxCell id="M3RhQpsxPhfQu1w_rPYv-22" value="" style="endArrow=classic;html=1;rounded=0;entryX=-0.003;entryY=0.65;entryDx=0;entryDy=0;entryPerimeter=0;exitX=0.75;exitY=1;exitDx=0;exitDy=0;" parent="1" source="M3RhQpsxPhfQu1w_rPYv-2" target="M3RhQpsxPhfQu1w_rPYv-7" edge="1">
          <mxGeometry width="50" height="50" relative="1" as="geometry">
            <mxPoint x="310" y="320" as="sourcePoint" />
            <mxPoint x="360" y="270" as="targetPoint" />
            <Array as="points">
              <mxPoint x="330" y="439" />
            </Array>
          </mxGeometry>
        </mxCell>
        <mxCell id="M3RhQpsxPhfQu1w_rPYv-23" value="" style="endArrow=classic;html=1;rounded=0;entryX=0;entryY=0.5;entryDx=0;entryDy=0;exitX=1.004;exitY=0.164;exitDx=0;exitDy=0;exitPerimeter=0;" parent="1" source="M3RhQpsxPhfQu1w_rPYv-2" target="M3RhQpsxPhfQu1w_rPYv-4" edge="1">
          <mxGeometry width="50" height="50" relative="1" as="geometry">
            <mxPoint x="360" y="260" as="sourcePoint" />
            <mxPoint x="410" y="210" as="targetPoint" />
            <Array as="points">
              <mxPoint x="380" y="250" />
              <mxPoint x="380" y="190" />
            </Array>
          </mxGeometry>
        </mxCell>
        <mxCell id="M3RhQpsxPhfQu1w_rPYv-24" value="" style="endArrow=classic;html=1;rounded=0;entryX=0;entryY=0.5;entryDx=0;entryDy=0;exitX=1;exitY=0.5;exitDx=0;exitDy=0;" parent="1" source="M3RhQpsxPhfQu1w_rPYv-2" target="M3RhQpsxPhfQu1w_rPYv-5" edge="1">
          <mxGeometry width="50" height="50" relative="1" as="geometry">
            <mxPoint x="310" y="320" as="sourcePoint" />
            <mxPoint x="360" y="270" as="targetPoint" />
          </mxGeometry>
        </mxCell>
        <mxCell id="M3RhQpsxPhfQu1w_rPYv-25" value="" style="endArrow=classic;html=1;rounded=0;entryX=-0.003;entryY=0.664;entryDx=0;entryDy=0;entryPerimeter=0;exitX=1;exitY=0.75;exitDx=0;exitDy=0;" parent="1" source="M3RhQpsxPhfQu1w_rPYv-2" target="M3RhQpsxPhfQu1w_rPYv-6" edge="1">
          <mxGeometry width="50" height="50" relative="1" as="geometry">
            <mxPoint x="310" y="320" as="sourcePoint" />
            <mxPoint x="360" y="270" as="targetPoint" />
            <Array as="points">
              <mxPoint x="380" y="285" />
              <mxPoint x="380" y="360" />
            </Array>
          </mxGeometry>
        </mxCell>
        <mxCell id="M3RhQpsxPhfQu1w_rPYv-26" value="top(), free()" style="text;html=1;strokeColor=none;fillColor=none;align=center;verticalAlign=middle;whiteSpace=wrap;rounded=0;" parent="1" vertex="1">
          <mxGeometry x="360" y="160" width="60" height="30" as="geometry" />
        </mxCell>
        <mxCell id="M3RhQpsxPhfQu1w_rPYv-27" value="kmalloc()" style="text;html=1;strokeColor=none;fillColor=none;align=center;verticalAlign=middle;whiteSpace=wrap;rounded=0;" parent="1" vertex="1">
          <mxGeometry x="370" y="360" width="60" height="30" as="geometry" />
        </mxCell>
        <mxCell id="M3RhQpsxPhfQu1w_rPYv-28" value="write()" style="text;html=1;strokeColor=none;fillColor=none;align=center;verticalAlign=middle;whiteSpace=wrap;rounded=0;" parent="1" vertex="1">
          <mxGeometry x="360" y="440" width="60" height="30" as="geometry" />
        </mxCell>
        <mxCell id="M3RhQpsxPhfQu1w_rPYv-29" value="" style="endArrow=classic;html=1;rounded=0;entryX=0;entryY=0.5;entryDx=0;entryDy=0;" parent="1" target="M3RhQpsxPhfQu1w_rPYv-2" edge="1">
          <mxGeometry width="50" height="50" relative="1" as="geometry">
            <mxPoint x="160" y="270" as="sourcePoint" />
            <mxPoint x="210" y="220" as="targetPoint" />
          </mxGeometry>
        </mxCell>
        <mxCell id="M3RhQpsxPhfQu1w_rPYv-30" value="open()" style="text;html=1;strokeColor=none;fillColor=none;align=center;verticalAlign=middle;whiteSpace=wrap;rounded=0;" parent="1" vertex="1">
          <mxGeometry x="170" y="240" width="60" height="30" as="geometry" />
        </mxCell>
        <mxCell id="M3RhQpsxPhfQu1w_rPYv-36" value="App" style="text;html=1;strokeColor=none;fillColor=none;align=center;verticalAlign=middle;whiteSpace=wrap;rounded=0;" parent="1" vertex="1">
          <mxGeometry x="70" y="470" width="60" height="30" as="geometry" />
        </mxCell>
        <mxCell id="M3RhQpsxPhfQu1w_rPYv-37" value="OS" style="text;html=1;strokeColor=none;fillColor=none;align=center;verticalAlign=middle;whiteSpace=wrap;rounded=0;" parent="1" vertex="1">
          <mxGeometry x="270" y="470" width="60" height="30" as="geometry" />
        </mxCell>
        <mxCell id="M3RhQpsxPhfQu1w_rPYv-38" value="HardWare" style="text;html=1;strokeColor=none;fillColor=none;align=center;verticalAlign=middle;whiteSpace=wrap;rounded=0;" parent="1" vertex="1">
          <mxGeometry x="470" y="470" width="60" height="30" as="geometry" />
        </mxCell>
        <UserObject label="open()：https://linux.die.net/man/3/open" link="https://linux.die.net/man/3/open" id="M3RhQpsxPhfQu1w_rPYv-39">
          <mxCell style="text;whiteSpace=wrap;html=1;" parent="1" vertex="1">
            <mxGeometry x="40" y="520" width="243" height="30" as="geometry" />
          </mxCell>
        </UserObject>
        <UserObject label="top()：https://man7.org/linux/man-pages/man1/top.1.html" link="https://man7.org/linux/man-pages/man1/top.1.html" id="M3RhQpsxPhfQu1w_rPYv-41">
          <mxCell style="text;whiteSpace=wrap;html=1;" parent="1" vertex="1">
            <mxGeometry x="40" y="550" width="330" height="30" as="geometry" />
          </mxCell>
        </UserObject>
        <UserObject label="free()：https://man7.org/linux/man-pages/man1/free.1.html" link="https://man7.org/linux/man-pages/man1/free.1.html" id="M3RhQpsxPhfQu1w_rPYv-42">
          <mxCell style="text;whiteSpace=wrap;html=1;" parent="1" vertex="1">
            <mxGeometry x="40" y="580" width="320" height="30" as="geometry" />
          </mxCell>
        </UserObject>
        <UserObject label="kmalloc()：https://www.kernel.org/doc/htmldocs/kernel-api/API-kmalloc.html" link="https://www.kernel.org/doc/htmldocs/kernel-api/API-kmalloc.html" id="M3RhQpsxPhfQu1w_rPYv-43">
          <mxCell style="text;whiteSpace=wrap;html=1;" parent="1" vertex="1">
            <mxGeometry x="40" y="610" width="410" height="30" as="geometry" />
          </mxCell>
        </UserObject>
        <UserObject label="write()：https://man7.org/linux/man-pages/man2/write.2.html" link="https://man7.org/linux/man-pages/man2/write.2.html" id="M3RhQpsxPhfQu1w_rPYv-44">
          <mxCell style="text;whiteSpace=wrap;html=1;" parent="1" vertex="1">
            <mxGeometry x="40" y="640" width="340" height="30" as="geometry" />
          </mxCell>
        </UserObject>
      </root>
    </mxGraphModel>
  </diagram>
</mxfile>
